<svg xmlns="http://www.w3.org/2000/svg" viewBox="0 0 1600 1000" role="img" aria-label="Schematic-style prototype background">
  <rect width="1600" height="1000" fill="#fbfaf7"/>
  <g fill="none" stroke="#101010" stroke-opacity=".2" stroke-width="2">
    <path d="M250 130C430 100 560 160 690 290S960 400 1160 270S1430 130 1540 260"/>
    <path d="M140 690C310 570 470 620 620 730S960 870 1120 720S1350 540 1500 640"/>
    <path d="M760 120V890"/>
    <path d="M110 500H1490"/>
  </g>
  <g fill="none" stroke="#101010" stroke-opacity=".12" stroke-width="1">
    <circle cx="760" cy="500" r="72"/>
    <circle cx="760" cy="500" r="132"/>
    <circle cx="760" cy="500" r="196"/>
    <circle cx="760" cy="500" r="260"/>
    <circle cx="760" cy="500" r="324"/>
  </g>
  <g fill="#101010" fill-opacity=".55" font-family="ui-monospace, SFMono-Regular, Menlo, monospace" font-size="15">
    <text x="130" y="120">A-17</text>
    <text x="1430" y="120">GRID REF</text>
    <text x="130" y="910">RUNBOOK MAP</text>
    <text x="1390" y="910">TRACE 04</text>
  </g>
  <g stroke="#101010" stroke-opacity=".32" stroke-width="1.5">
    <path d="M250 130h-86v52"/>
    <path d="M690 290h-120v76"/>
    <path d="M1160 270h110v-64"/>
    <path d="M620 730h-140v72"/>
    <path d="M1120 720h130v78"/>
  </g>
  <g fill="#ff4d2d" fill-opacity=".72">
    <circle cx="250" cy="130" r="5"/>
    <circle cx="690" cy="290" r="5"/>
    <circle cx="1160" cy="270" r="5"/>
    <circle cx="620" cy="730" r="5"/>
    <circle cx="1120" cy="720" r="5"/>
  </g>
  <g fill="#101010" fill-opacity=".1">
    <rect x="190" y="192" width="190" height="10"/>
    <rect x="570" y="380" width="240" height="10"/>
    <rect x="1270" y="190" width="210" height="10"/>
    <rect x="480" y="816" width="250" height="10"/>
    <rect x="1250" y="812" width="180" height="10"/>
  </g>
</svg>

